# xmcd
#
# Track frame offsets: 
#        172
#        12145
#        24640
#        39040
#        50530
#        65605
#        77520
#        91567
#        105412
#        117862
#        131195
#        149057
#
# Disc length: 2140 seconds
#
# Revision: 3
# Processed by: cddbd v1.5.2PL0 Copyright (c) Steve Scherf et al.
# Submitted via: ExactAudioCopy v0.99pb5
#
DISCID=93085a0c
DTITLE=Jimmy Page, Jeff Beck, J Bonham - Smoke And Fire
DYEAR=1970
DGENRE=Rock
TTITLE0=Wailing Sounds
TTITLE1=Cause I Love You
TTITLE2=Flashing Lights
TTITLE3=Gutty Guitar
TTITLE4=Would You Believe 
TTITLE5=Smoke And Fire
TTITLE6=Thumping Beat
TTITLE7=Union Jack Car
TTITLE8=One For You, Baby
TTITLE9=L-O-N-D-O-N
TTITLE10=Brightest Lights
TTITLE11=Baby, Come Back
EXTD=Also on Cotillion  SD 9015:\nScreaming Lord Sutch and Heavy Friends
EXTD=\n\nJimmy Page - lead guitar (1,2,3,7,8,12]\nJeff Beck - lead gui
EXTD=tar (4,5,11]\nNoel Redding - bass (7,9,10]\nJohn Bonham - drums (
EXTD=1,2,3,7,8,12]\nNicky Hopkins - piano (4]\nDaniel Edwards - bass &
EXTD=guitar (1,2,3,6,8,12]\nCarlo Little - drums (4]\nKent Henrey - l
EXTD=ead guitar (6,9,10]\nMartin Kohl - bass (6,9,10]\nRick Brown - ba
EXTD=ss (4]\nBob Metke - drums (6,9,10]\nDavid Sutch - vocals (all tra
EXTD=cks)
EXTT0=
EXTT1=
EXTT2=
EXTT3=
EXTT4=
EXTT5=
EXTT6=
EXTT7=
EXTT8=
EXTT9=
EXTT10=
EXTT11=
PLAYORDER=
